<svg xmlns="http://www.w3.org/2000/svg" width="64" height="64">
  <defs>
    <linearGradient id="st" x1="0" x2="1" y1="0" y2="0"><stop offset="0" stop-color="#6e6860"/><stop offset="0.6" stop-color="#8e8880"/><stop offset="1" stop-color="#505048"/></linearGradient>
  </defs>
  <ellipse cx="34" cy="62" rx="28" ry="5" fill="#00000040"/>
  <!-- flat roof with crenellations -->
  <rect x="6" y="20" width="52" height="38" fill="url(#st)"/>
  <rect x="44" y="20" width="14" height="38" fill="#00000018"/>
  <!-- mortar grid -->
  <line x1="6" y1="30" x2="58" y2="30" stroke="#4a4840" stroke-width="0.8" opacity="0.6"/>
  <line x1="6" y1="42" x2="58" y2="42" stroke="#4a4840" stroke-width="0.8" opacity="0.6"/>
  <line x1="22" y1="20" x2="22" y2="58" stroke="#4a4840" stroke-width="0.7" opacity="0.5"/>
  <line x1="40" y1="20" x2="40" y2="58" stroke="#4a4840" stroke-width="0.7" opacity="0.5"/>
  <!-- crenellations top -->
  <rect x="6"  y="14" width="7" height="8" fill="#5a5450"/><rect x="16" y="14" width="7" height="8" fill="#5a5450"/>
  <rect x="26" y="14" width="7" height="8" fill="#5a5450"/><rect x="36" y="14" width="7" height="8" fill="#5a5450"/>
  <rect x="46" y="14" width="7" height="8" fill="#5a5450"/>
  <!-- arrow slits -->
  <rect x="12" y="24" width="4" height="14" rx="1" fill="#111"/>
  <rect x="30" y="24" width="4" height="14" rx="1" fill="#111"/>
  <rect x="48" y="24" width="4" height="14" rx="1" fill="#111"/>
  <!-- gate (heavy) -->
  <rect x="26" y="38" width="12" height="20" fill="#1a0e04"/>
  <line x1="28" y1="38" x2="28" y2="58" stroke="#3a2010" stroke-width="1.5"/>
  <line x1="32" y1="38" x2="32" y2="58" stroke="#3a2010" stroke-width="1.5"/>
  <line x1="36" y1="38" x2="36" y2="58" stroke="#3a2010" stroke-width="1.5"/>
  <!-- crossed swords emblem -->
  <line x1="30" y1="30" x2="38" y2="36" stroke="#cc2222" stroke-width="2"/>
  <line x1="38" y1="30" x2="30" y2="36" stroke="#cc2222" stroke-width="2"/>
  <line x1="30" y1="33" x2="38" y2="33" stroke="#cc2222" stroke-width="1.2"/>
</svg>