<svg xmlns="http://www.w3.org/2000/svg" width="64" height="64">
  <defs>
    <linearGradient id="wh" x1="0" x2="1" y1="0" y2="0"><stop offset="0" stop-color="#d0c8b8"/><stop offset="0.6" stop-color="#e8e0d0"/><stop offset="1" stop-color="#b0a898"/></linearGradient>
    <linearGradient id="rf" x1="0" x2="0" y1="0" y2="1"><stop offset="0" stop-color="#7a6018"/><stop offset="1" stop-color="#5a4010"/></linearGradient>
  </defs>
  <ellipse cx="34" cy="62" rx="28" ry="5" fill="#00000038"/>
  <!-- bell tower top -->
  <rect x="26" y="8" width="12" height="14" fill="#c0b8a8"/>
  <rect x="24" y="6" width="16" height="4" fill="#a8a090"/>
  <!-- cross (gold) -->
  <rect x="30" y="-2" width="4" height="16" fill="#c8960c"/>
  <rect x="24" y="4" width="16" height="4" fill="#c8960c"/>
  <!-- roof -->
  <polygon points="32,18 4,34 60,34" fill="url(#rf)"/>
  <polygon points="32,18 56,34 60,34" fill="#00000020"/>
  <!-- wall (pale stone) -->
  <rect x="8" y="34" width="48" height="24" fill="url(#wh)"/>
  <rect x="44" y="34" width="12" height="24" fill="#00000015"/>
  <!-- mortar -->
  <line x1="8" y1="44" x2="56" y2="44" stroke="#a8a090" stroke-width="0.7" opacity="0.5"/>
  <line x1="8" y1="54" x2="56" y2="54" stroke="#a8a090" stroke-width="0.7" opacity="0.5"/>
  <!-- gothic arch windows -->
  <rect x="10" y="36" width="12" height="18" rx="0" fill="#ffe8a0"/>
  <path d="M10,36 Q16,28 22,36" fill="#ffe8a0"/>
  <line x1="16" y1="36" x2="16" y2="54" stroke="#8a6820" stroke-width="1"/>
  <rect x="42" y="36" width="12" height="18" fill="#ffe8a0"/>
  <path d="M42,36 Q48,28 54,36" fill="#ffe8a0"/>
  <line x1="48" y1="36" x2="48" y2="54" stroke="#8a6820" stroke-width="1"/>
  <!-- arched door -->
  <rect x="27" y="42" width="10" height="16" fill="#2a1408"/>
  <path d="M27,42 Q32,36 37,42" fill="#2a1408"/>
</svg>