<svg xmlns="http://www.w3.org/2000/svg" width="64" height="64">
  <defs>
    <linearGradient id="wall" x1="0" x2="1" y1="0" y2="0"><stop offset="0" stop-color="#c09030"/><stop offset="0.7" stop-color="#d8aa48"/><stop offset="1" stop-color="#987020"/></linearGradient>
  </defs>
  <ellipse cx="34" cy="62" rx="28" ry="5" fill="#00000038"/>
  <!-- wall -->
  <rect x="6" y="30" width="52" height="28" fill="url(#wall)"/>
  <rect x="44" y="30" width="14" height="28" fill="#00000018"/>
  <!-- coloured awning triangles -->
  <polygon points="6,30 16,14 26,30" fill="#cc2222"/>
  <polygon points="16,30 26,14 36,30" fill="#f0e030"/>
  <polygon points="26,30 36,14 46,30" fill="#cc2222"/>
  <polygon points="36,30 46,14 56,30" fill="#f0e030"/>
  <polygon points="46,30 56,14 66,30" fill="#cc2222"/>
  <!-- awning rail -->
  <rect x="6" y="29" width="52" height="3" fill="#885500"/>
  <!-- display counter -->
  <rect x="16" y="44" width="28" height="6" fill="#a07020"/>
  <!-- goods on counter -->
  <circle cx="22" cy="45" r="3" fill="#ffd700"/>
  <circle cx="30" cy="44" r="2.5" fill="#cc4422"/>
  <circle cx="37" cy="45" r="3" fill="#ffd700"/>
  <!-- door -->
  <rect x="26" y="50" width="10" height="8" fill="#2a1408"/>
  <!-- windows -->
  <rect x="8" y="34" width="9" height="8" rx="1" fill="#ffe8a0"/>
  <rect x="47" y="34" width="9" height="8" rx="1" fill="#ffe8a0"/>
</svg>