<svg xmlns="http://www.w3.org/2000/svg" width="64" height="64">
  <defs>
    <linearGradient id="wd" x1="0" x2="1" y1="0" y2="0"><stop offset="0" stop-color="#8a6030"/><stop offset="0.6" stop-color="#aa7848"/><stop offset="1" stop-color="#6a4018"/></linearGradient>
    <linearGradient id="rf" x1="0" x2="0" y1="0" y2="1"><stop offset="0" stop-color="#5a3810"/><stop offset="1" stop-color="#3a2008"/></linearGradient>
  </defs>
  <ellipse cx="34" cy="62" rx="30" ry="5" fill="#00000038"/>
  <!-- roof -->
  <polygon points="32,4 2,28 62,28" fill="url(#rf)"/>
  <polygon points="32,4 58,28 62,28" fill="#00000022"/>
  <!-- wall -->
  <rect x="6" y="28" width="52" height="30" fill="url(#wd)"/>
  <rect x="44" y="28" width="14" height="30" fill="#00000018"/>
  <!-- fence posts left -->
  <rect x="1" y="28" width="5" height="10" fill="#9a7040"/><rect x="1" y="40" width="5" height="10" fill="#9a7040"/>
  <line x1="3" y1="31" x2="9" y2="31" stroke="#7a5020" stroke-width="2"/>
  <line x1="3" y1="43" x2="9" y2="43" stroke="#7a5020" stroke-width="2"/>
  <!-- fence posts right -->
  <rect x="58" y="28" width="5" height="10" fill="#9a7040"/><rect x="58" y="40" width="5" height="10" fill="#9a7040"/>
  <line x1="55" y1="31" x2="61" y2="31" stroke="#7a5020" stroke-width="2"/>
  <line x1="55" y1="43" x2="61" y2="43" stroke="#7a5020" stroke-width="2"/>
  <!-- horse silhouette -->
  <ellipse cx="38" cy="42" rx="14" ry="9" fill="#6a4428"/>
  <circle cx="50" cy="37" r="5" fill="#6a4428"/>
  <rect x="48" y="32" width="5" height="7" fill="#6a4428"/>
  <rect x="46" y="31" width="8" height="3" fill="#3a2010"/>
  <!-- stable door (double) -->
  <rect x="16" y="38" width="14" height="20" fill="#3a2008"/>
  <line x1="23" y1="38" x2="23" y2="58" stroke="#5a3010" stroke-width="1.5"/>
  <!-- window -->
  <rect x="38" y="30" width="10" height="8" rx="1" fill="#ffe8a0"/>
</svg>