<svg xmlns="http://www.w3.org/2000/svg" width="48" height="48">
  <defs>
    <linearGradient id="stl" x1="0" x2="1" y1="0" y2="0"><stop offset="0" stop-color="#706860"/><stop offset="0.6" stop-color="#908880"/><stop offset="1" stop-color="#504840"/></linearGradient>
  </defs>
  <ellipse cx="26" cy="46" rx="18" ry="4" fill="#00000045"/>
  <!-- conical roof -->
  <polygon points="24,2 8,18 40,18" fill="#3e3028"/>
  <polygon points="24,2 34,18 40,18" fill="#00000025"/>
  <!-- stone shaft -->
  <rect x="10" y="18" width="28" height="28" fill="url(#stl)"/>
  <rect x="30" y="18" width="8" height="28" fill="#00000020"/>
  <!-- mortar lines -->
  <line x1="10" y1="26" x2="38" y2="26" stroke="#505048" stroke-width="0.8" opacity="0.6"/>
  <line x1="10" y1="34" x2="38" y2="34" stroke="#505048" stroke-width="0.8" opacity="0.6"/>
  <line x1="20" y1="18" x2="20" y2="46" stroke="#505048" stroke-width="0.6" opacity="0.5"/>
  <!-- crenellations -->
  <rect x="10" y="12" width="5" height="8" fill="#585050"/>
  <rect x="18" y="12" width="5" height="8" fill="#585050"/>
  <rect x="26" y="12" width="5" height="8" fill="#585050"/>
  <rect x="33" y="12" width="5" height="8" fill="#585050"/>
  <!-- arrow slits -->
  <rect x="20" y="22" width="4" height="10" rx="1" fill="#111"/>
  <rect x="20" y="36" width="4" height="8" rx="1" fill="#111"/>
</svg>