<svg xmlns="http://www.w3.org/2000/svg" width="48" height="48">
  <defs>
    <linearGradient id="st" x1="0" x2="1" y1="0" y2="0"><stop offset="0" stop-color="#6e6860"/><stop offset="0.6" stop-color="#8e8880"/><stop offset="1" stop-color="#4e4840"/></linearGradient>
  </defs>
  <!-- wall body -->
  <rect x="0" y="16" width="48" height="32" fill="url(#st)"/>
  <rect x="34" y="16" width="14" height="32" fill="#00000018"/>
  <!-- mortar lines -->
  <line x1="0" y1="26" x2="48" y2="26" stroke="#4a4438" stroke-width="0.8" opacity="0.7"/>
  <line x1="0" y1="36" x2="48" y2="36" stroke="#4a4438" stroke-width="0.8" opacity="0.7"/>
  <line x1="12" y1="16" x2="12" y2="48" stroke="#4a4438" stroke-width="0.6" opacity="0.5"/>
  <line x1="28" y1="16" x2="28" y2="48" stroke="#4a4438" stroke-width="0.6" opacity="0.5"/>
  <line x1="6" y1="26" x2="6" y2="36" stroke="#4a4438" stroke-width="0.6" opacity="0.5"/>
  <line x1="20" y1="26" x2="20" y2="36" stroke="#4a4438" stroke-width="0.6" opacity="0.5"/>
  <line x1="36" y1="26" x2="36" y2="36" stroke="#4a4438" stroke-width="0.6" opacity="0.5"/>
  <!-- crenellations -->
  <rect x="0"  y="8" width="10" height="10" fill="#5a5448"/><rect x="14" y="8" width="10" height="10" fill="#5a5448"/>
  <rect x="28" y="8" width="10" height="10" fill="#5a5448"/><rect x="42" y="8" width="6"  height="10" fill="#5a5448"/>
  <!-- arrow slit -->
  <rect x="20" y="22" width="5" height="14" rx="1" fill="#1a1810"/>
</svg>