<svg xmlns="http://www.w3.org/2000/svg" width="96" height="96">
  <ellipse cx="52" cy="91" rx="29" ry="6" fill="#00000030"/>
  <line x1="70" y1="22" x2="70" y2="83" stroke="#bb3322" stroke-width="4"/>
  <polygon points="70,4 62,15 78,15" fill="#ff5544"/>
  <rect x="66" y="14" width="8" height="3" fill="#ffd700"/>
  <rect x="9" y="40" width="21" height="22" fill="#881100"/>
  <polygon points="9,62 30,62 19.5,77" fill="#881100"/>
  <rect x="16" y="48" width="9" height="3" fill="#ffd700"/>
  <rect x="18" y="43" width="3" height="10" fill="#ffd700"/>
  <rect x="30" y="30" width="33" height="44" rx="4" fill="#aa2211"/>
  <rect x="30" y="30" width="10" height="44" fill="#ffffff" opacity="0.14"/>
  <rect x="30" y="57" width="33" height="6" fill="#880000"/>
  <circle cx="48" cy="23" r="16" fill="#aa2211"/>
  <circle cx="48" cy="23" r="16" fill="none" stroke="#ffd700" stroke-width="4"/>
  <rect x="34" y="19" width="27" height="7" rx="1" fill="#880000"/>
  <polygon points="48,0 43,10 53,10" fill="#dd1111"/>
</svg>