<svg xmlns="http://www.w3.org/2000/svg" width="96" height="96">
  <ellipse cx="52" cy="91" rx="29" ry="6" fill="#00000030"/>
  <!-- halberd right -->
  <line x1="70" y1="22" x2="70" y2="83" stroke="#6a4818" stroke-width="4"/>
  <polygon points="70,4 62,15 78,15" fill="#cccccc"/>
  <rect x="66" y="14" width="8" height="3" fill="#ffd700"/>
  <!-- shield left -->
  <rect x="9" y="40" width="21" height="22" fill="#8B6914"/>
  <polygon points="9,62 30,62 19.5,77" fill="#8B6914"/>
  <rect x="16" y="48" width="9" height="3" fill="#ffd700"/>
  <rect x="18" y="43" width="3" height="10" fill="#ffd700"/>
  <!-- gold armour body -->
  <rect x="30" y="30" width="33" height="44" rx="4" fill="#b8860b"/>
  <rect x="30" y="30" width="10" height="44" fill="#ffffff" opacity="0.14"/>
  <!-- belt -->
  <rect x="30" y="57" width="33" height="6" fill="#7a5500"/>
  <!-- royal helmet -->
  <circle cx="48" cy="23" r="16" fill="#b8860b"/>
  <circle cx="48" cy="23" r="16" fill="none" stroke="#ffd700" stroke-width="4"/>
  <rect x="34" y="19" width="27" height="7" rx="1" fill="#7a5500"/>
  <!-- plume -->
  <polygon points="48,0 43,10 53,10" fill="#dd1111"/>
  <polygon points="48,0 49,9 53,10" fill="#ff4444" opacity="0.6"/>
</svg>