<svg xmlns="http://www.w3.org/2000/svg" width="96" height="96">
  <ellipse cx="52" cy="91" rx="29" ry="6" fill="#00000030"/>
  <line x1="79" y1="4" x2="79" y2="83" stroke="#aa3311" stroke-width="5"/>
  <circle cx="79" cy="6" r="9" fill="#ff8888"/>
  <circle cx="79" cy="6" r="9" fill="none" stroke="#ffffff" stroke-width="2" opacity="0.7"/>
  <circle cx="77" cy="3" r="3" fill="#ffffff" opacity="0.8"/>
  <polygon points="48,30 22,81 74,81" fill="#aa2211"/>
  <rect x="35" y="30" width="25" height="25" fill="#aa2211"/>
  <rect x="40" y="30" width="15" height="17" fill="#cc3322"/>
  <rect x="37" y="30" width="6" height="48" fill="#ffffff" opacity="0.12"/>
  <line x1="38" y1="60" x2="58" y2="60" stroke="#ff8888" stroke-width="2" opacity="0.70"/>
  <line x1="38" y1="69" x2="58" y2="69" stroke="#ff8888" stroke-width="2" opacity="0.70"/>
  <line x1="38" y1="78" x2="58" y2="78" stroke="#ff8888" stroke-width="2" opacity="0.70"/>
  <polygon points="48,0 28,27 68,27" fill="#881100"/>
  <polygon points="48,0 51,11 68,27" fill="#ffffff" opacity="0.12"/>
  <ellipse cx="48" cy="27" rx="20" ry="5" fill="#cc3322"/>
  <circle cx="48" cy="11" r="4" fill="#ff8888"/>
  <circle cx="48" cy="22" r="13" fill="#c8a870"/>
  <circle cx="44" cy="21" r="3" fill="#ff8888"/>
  <circle cx="52" cy="21" r="3" fill="#ff8888"/>
  <circle cx="43" cy="20" r="1" fill="#ffffff" opacity="0.8"/>
  <circle cx="51" cy="20" r="1" fill="#ffffff" opacity="0.8"/>
</svg>